# xmcd
#
# Track frame offsets: 
#        182
#        16612
#        35387
#
# Disc length: 715 seconds
#
# Revision: 2
# Processed by: cddbd v1.5.1PL0 Copyright (c) Steve Scherf et al.
# Submitted via: ExactAudioCopy v0.95a5
#
DISCID=1302c903
DTITLE=Nu Flavor - Sweet Sexy Thing
DYEAR=1997
DGENRE=R&B
TTITLE0=Radio Edit
TTITLE1=English/Spanish Edit (Tu Sexy Tu)
TTITLE2=Album Edit
EXTD=
EXTT0=
EXTT1=
EXTT2=
PLAYORDER=
